<svg xmlns="http://www.w3.org/2000/svg" width="860" height="460" viewBox="0 0 860 460">
<rect width="100%" height="100%" fill="white"/>
<text x="80" y="35" font-size="22" font-family="Arial" fill="#222">MovieLens Sorting Runtime Comparison</text>
<line x1="80" y1="390" x2="810" y2="390" stroke="#333"/>
<line x1="80" y1="60" x2="80" y2="390" stroke="#333"/>
<polyline points="87.49,388.33 117.47,383.75 154.93,375.91 454.67,306.86 810.00,194.11" fill="none" stroke="#1f77b4" stroke-width="3"/>
<polyline points="87.49,387.72 117.47,379.49 154.93,367.22 454.67,238.06 810.00,60.00" fill="none" stroke="#d62728" stroke-width="3"/>
<text x="650" y="80" font-size="14" font-family="Arial" fill="#1f77b4">Merge sort</text>
<text x="650" y="105" font-size="14" font-family="Arial" fill="#d62728">Heap sort</text>
<text x="360" y="430" font-size="14" font-family="Arial" fill="#333">Data size</text>
<text x="15" y="230" font-size="14" font-family="Arial" fill="#333" transform="rotate(-90 15,230)">Seconds</text>
<text x="72.49" y="410" font-size="11" font-family="Arial">100</text>
<circle cx="87.49" cy="388.33" r="4" fill="#1f77b4"/>
<circle cx="87.49" cy="387.72" r="4" fill="#d62728"/>
<text x="102.47" y="410" font-size="11" font-family="Arial">500</text>
<circle cx="117.47" cy="383.75" r="4" fill="#1f77b4"/>
<circle cx="117.47" cy="379.49" r="4" fill="#d62728"/>
<text x="139.93" y="410" font-size="11" font-family="Arial">1000</text>
<circle cx="154.93" cy="375.91" r="4" fill="#1f77b4"/>
<circle cx="154.93" cy="367.22" r="4" fill="#d62728"/>
<text x="439.67" y="410" font-size="11" font-family="Arial">5000</text>
<circle cx="454.67" cy="306.86" r="4" fill="#1f77b4"/>
<circle cx="454.67" cy="238.06" r="4" fill="#d62728"/>
<text x="795.00" y="410" font-size="11" font-family="Arial">9742</text>
<circle cx="810.00" cy="194.11" r="4" fill="#1f77b4"/>
<circle cx="810.00" cy="60.00" r="4" fill="#d62728"/>
</svg>